/* XPM */
static char * jbrofuzz_logo_windows_16x16_xpm[] = {
"16 16 204 2",
"  	c None",
". 	c #2A2A2A",
"+ 	c #424242",
"@ 	c #666666",
"# 	c #858484",
"$ 	c #999999",
"% 	c #B4B4B4",
"& 	c #080808",
"* 	c #20201F",
"= 	c #1E2024",
"- 	c #202333",
"; 	c #040812",
"> 	c #060916",
", 	c #333747",
"' 	c #6B6C6F",
") 	c #F0EFEF",
"! 	c #F4F4F4",
"~ 	c #0A0A0A",
"{ 	c #141412",
"] 	c #192243",
"^ 	c #232B44",
"/ 	c #161A30",
"( 	c #10162C",
"_ 	c #1F2945",
": 	c #1C1F30",
"< 	c #242949",
"[ 	c #0C0F23",
"} 	c #B6B5B3",
"| 	c #D3D3D3",
"1 	c #070807",
"2 	c #161514",
"3 	c #1E2548",
"4 	c #405A98",
"5 	c #2C3966",
"6 	c #425395",
"7 	c #303A57",
"8 	c #272B4F",
"9 	c #181B35",
"0 	c #34497A",
"a 	c #455B98",
"b 	c #182851",
"c 	c #999897",
"d 	c #ACACAC",
"e 	c #1F1F1E",
"f 	c #222F59",
"g 	c #2C3967",
"h 	c #213058",
"i 	c #495C9F",
"j 	c #3A4C84",
"k 	c #222849",
"l 	c #2F3A66",
"m 	c #5467AB",
"n 	c #4864AD",
"o 	c #313E69",
"p 	c #1D2748",
"q 	c #19223B",
"r 	c #9C9C9C",
"s 	c #262627",
"t 	c #181714",
"u 	c #4864AA",
"v 	c #4C6AB1",
"w 	c #3C4D84",
"x 	c #253B67",
"y 	c #465697",
"z 	c #030709",
"A 	c #0A0B12",
"B 	c #4F69B1",
"C 	c #2E3E6C",
"D 	c #263862",
"E 	c #415895",
"F 	c #5570C1",
"G 	c #464644",
"H 	c #7C7C7C",
"I 	c #222736",
"J 	c #313866",
"K 	c #4B5F9D",
"L 	c #465790",
"M 	c #5467AE",
"N 	c #4161A6",
"O 	c #242746",
"P 	c #344579",
"Q 	c #405596",
"R 	c #3F5187",
"S 	c #495C96",
"T 	c #5876CC",
"U 	c #27305B",
"V 	c #1E212B",
"W 	c #646464",
"X 	c #646463",
"Y 	c #161D38",
"Z 	c #333A65",
"` 	c #1A2543",
" .	c #02020C",
"..	c #02060D",
"+.	c #2E375B",
"@.	c #465EA2",
"#.	c #465F9E",
"$.	c #262C4D",
"%.	c #000104",
"&.	c #0D101F",
"*.	c #313B65",
"=.	c #2B3761",
"-.	c #181F33",
";.	c #575857",
">.	c #838382",
",.	c #181E39",
"'.	c #2D3E6B",
").	c #3E4D86",
"!.	c #222A46",
"~.	c #232944",
"{.	c #455F9A",
"].	c #44558C",
"^.	c #5F7CC4",
"/.	c #45568C",
"(.	c #1A1B34",
"_.	c #33416D",
":.	c #2E3C6E",
"<.	c #2D375B",
"[.	c #232B4A",
"}.	c #434344",
"|.	c #9A9A9A",
"1.	c #3F4A6D",
"2.	c #4C64AB",
"3.	c #4B5EA1",
"4.	c #354880",
"5.	c #566DB9",
"6.	c #0F121F",
"7.	c #2C365A",
"8.	c #374E91",
"9.	c #596CB8",
"0.	c #3B508B",
"a.	c #526AB5",
"b.	c #4E60A7",
"c.	c #0F111D",
"d.	c #29292A",
"e.	c #B2B2B2",
"f.	c #626264",
"g.	c #445B99",
"h.	c #33406E",
"i.	c #252F5D",
"j.	c #455EA2",
"k.	c #3A4478",
"l.	c #293662",
"m.	c #090E1A",
"n.	c #475A9C",
"o.	c #243458",
"p.	c #3A508E",
"q.	c #4A61A9",
"r.	c #1F2948",
"s.	c #131316",
"t.	c #222222",
"u.	c #EAE9E8",
"v.	c #101934",
"w.	c #253256",
"x.	c #3F5B9B",
"y.	c #4A5E9A",
"z.	c #415395",
"A.	c #394372",
"B.	c #4D63A7",
"C.	c #42559A",
"D.	c #212D4C",
"E.	c #263253",
"F.	c #0F0F0F",
"G.	c #F5F5F5",
"H.	c #AFAEAD",
"I.	c #22386F",
"J.	c #3A4A7D",
"K.	c #1C2643",
"L.	c #2C3255",
"M.	c #212646",
"N.	c #2B3563",
"O.	c #313B6E",
"P.	c #4E6FB6",
"Q.	c #384B86",
"R.	c #1A2240",
"S.	c #090907",
"T.	c #050404",
"U.	c #D2D2D2",
"V.	c #949392",
"W.	c #10152E",
"X.	c #20293D",
"Y.	c #191D3C",
"Z.	c #182139",
"`.	c #282D4D",
" +	c #293151",
".+	c #31396B",
"++	c #263762",
"@+	c #090807",
"#+	c #ABABAB",
"$+	c #999997",
"%+	c #464648",
"&+	c #262A37",
"*+	c #060712",
"=+	c #131B2D",
"-+	c #1A2035",
";+	c #16171A",
">+	c #0F0F0E",
",+	c #030303",
"'+	c #757575",
")+	c #626262",
"!+	c #555454",
"~+	c #40403F",
"{+	c #272727",
"]+	c #1C1C1C",
"          . + @ # $ %           ",
"      & * = - ; > , ' ) !       ",
"    ~ { ] ^ / ( _ : < [ } |     ",
"  1 2 3 4 5 6 7 8 9 0 a b c d   ",
"  e f g h i j k l m n o p q r   ",
"s t u v w x y z A B C D E F G H ",
"+ I J K L M N O P Q R S T U V W ",
"X Y Z `  ...+.@.#.$.%.&.*.=.-.;.",
">.,.'.).!.~.{.].^./.(._.:.<.[.}.",
"|.1.2.3.R 4.5.6.7.8.9.0.a.b.c.d.",
"e.f.g.h.i.j.k.l.m.n.o.p.q.r.s.t.",
"  u.v.w.x.y.z.A.5 B.C.D.C E.F.  ",
"  G.H.I.J.K.L.M.N.O.P.Q.R.S.T.  ",
"    U.V.W.X.Y.Z.`. +.+++@+F.    ",
"      #+$+%+&+*+=+-+;+>+,+      ",
"          '+)+!+~+{+]+          "};
