/* XPM */
static char * jbrofuzz_logo_windows_32x32_xpm[] = {
"32 32 746 2",
"  	c None",
". 	c #3A3A3A",
"+ 	c #434343",
"@ 	c #555555",
"# 	c #606060",
"$ 	c #6E6E6E",
"% 	c #7E7E7E",
"& 	c #8B8B8B",
"* 	c #B3B3B3",
"= 	c #232324",
"- 	c #2E2E2E",
"; 	c #3D3D3D",
"> 	c #4D4D4D",
", 	c #5F5F5F",
"' 	c #707070",
") 	c #7F7F7F",
"! 	c #949494",
"~ 	c #A0A0A0",
"{ 	c #ADADAD",
"] 	c #BEBEBE",
"^ 	c #0B0B0B",
"/ 	c #121212",
"( 	c #212121",
"_ 	c #323232",
": 	c #393939",
"< 	c #2B2B29",
"[ 	c #1E1D1B",
"} 	c #0F0F13",
"| 	c #0D101C",
"1 	c #0E111D",
"2 	c #171719",
"3 	c #3B3A38",
"4 	c #6A6A69",
"5 	c #B7B8B8",
"6 	c #D1D1D1",
"7 	c #D9D9D9",
"8 	c #E8E8E8",
"9 	c #FAFAFA",
"0 	c #050505",
"a 	c #131213",
"b 	c #232323",
"c 	c #242323",
"d 	c #0A0A0C",
"e 	c #090F22",
"f 	c #1F2449",
"g 	c #1C2541",
"h 	c #0E1622",
"i 	c #050913",
"j 	c #060B0F",
"k 	c #151B3B",
"l 	c #273155",
"m 	c #141936",
"n 	c #00051A",
"o 	c #343432",
"p 	c #C0C0BF",
"q 	c #FDFDFD",
"r 	c #F7F7F7",
"s 	c #EEEEEE",
"t 	c #090909",
"u 	c #131313",
"v 	c #080605",
"w 	c #070D1F",
"x 	c #15192A",
"y 	c #191D35",
"z 	c #1F213B",
"A 	c #20253E",
"B 	c #141D2F",
"C 	c #070B18",
"D 	c #181F2F",
"E 	c #111935",
"F 	c #242943",
"G 	c #0F1225",
"H 	c #394061",
"I 	c #131B42",
"J 	c #000317",
"K 	c #50504D",
"L 	c #F3F3F3",
"M 	c #E3E3E4",
"N 	c #DCDCDC",
"O 	c #1D1D1D",
"P 	c #02040B",
"Q 	c #394B87",
"R 	c #27345F",
"S 	c #161D32",
"T 	c #3B4D71",
"U 	c #050C1A",
"V 	c #242A4D",
"W 	c #2D355A",
"X 	c #05091B",
"Y 	c #212B46",
"Z 	c #2D395B",
"` 	c #20243A",
" .	c #20242D",
"..	c #01051C",
"+.	c #35384D",
"@.	c #050314",
"#.	c #323E6D",
"$.	c #0F0F12",
"%.	c #CDCDCD",
"&.	c #D0D0D0",
"*.	c #CACACA",
"=.	c #040504",
"-.	c #03040E",
";.	c #303E6F",
">.	c #38508C",
",.	c #5164A1",
"'.	c #050727",
").	c #374C77",
"!.	c #44538D",
"~.	c #212E60",
"{.	c #455170",
"].	c #101329",
"^.	c #222745",
"/.	c #2E3352",
"(.	c #28253E",
"_.	c #171B29",
":.	c #243050",
"<.	c #24355A",
"[.	c #31406C",
"}.	c #4A5E9B",
"|.	c #334A85",
"1.	c #05060D",
"2.	c #BBBBBC",
"3.	c #BDBDBD",
"4.	c #B4B4B4",
"5.	c #222222",
"6.	c #03040A",
"7.	c #22274A",
"8.	c #242E51",
"9.	c #2C4170",
"0.	c #3C579B",
"a.	c #495B95",
"b.	c #415089",
"c.	c #5C6EC1",
"d.	c #3C4E82",
"e.	c #2B3958",
"f.	c #3B436D",
"g.	c #171B44",
"h.	c #3A4068",
"i.	c #2D3459",
"j.	c #111D46",
"k.	c #556BA6",
"l.	c #304A8A",
"m.	c #4A64A3",
"n.	c #3A5293",
"o.	c #2F4174",
"p.	c #263657",
"q.	c #111114",
"r.	c #B9B9B8",
"s.	c #A9A9A9",
"t.	c #ABABAB",
"u.	c #111111",
"v.	c #242424",
"w.	c #060504",
"x.	c #2E4073",
"y.	c #2A3863",
"z.	c #1E274C",
"A.	c #202E52",
"B.	c #2E4377",
"C.	c #445B9E",
"D.	c #4A5C9E",
"E.	c #3F5594",
"F.	c #3E4F7F",
"G.	c #3A426B",
"H.	c #384171",
"I.	c #465688",
"J.	c #232E64",
"K.	c #5268A9",
"L.	c #566DAD",
"M.	c #4D68B2",
"N.	c #465FA4",
"O.	c #3E548C",
"P.	c #314171",
"Q.	c #273156",
"R.	c #172540",
"S.	c #212D50",
"T.	c #393835",
"U.	c #A5A5A5",
"V.	c #989898",
"W.	c #222121",
"X.	c #1C2850",
"Y.	c #43599E",
"Z.	c #3D508C",
"`.	c #313E6D",
" +	c #232E59",
".+	c #22335A",
"++	c #3A4D8A",
"@+	c #4C5D9D",
"#+	c #394D8C",
"$+	c #394272",
"%+	c #16172C",
"&+	c #080F27",
"*+	c #0E1330",
"=+	c #404970",
"-+	c #383D81",
";+	c #5A72B5",
">+	c #4A6AB4",
",+	c #425695",
"'+	c #323D65",
")+	c #262D4E",
"!+	c #20254A",
"~+	c #26355D",
"{+	c #344576",
"]+	c #0C1228",
"^+	c #808080",
"/+	c #8D8D8D",
"(+	c #070709",
"_+	c #4964A0",
":+	c #4D69AF",
"<+	c #4B66A9",
"[+	c #445A92",
"}+	c #364979",
"|+	c #2C345B",
"1+	c #25345D",
"2+	c #3C5B99",
"3+	c #5974B8",
"4+	c #171A47",
"5+	c #000003",
"6+	c #151A2C",
"7+	c #111421",
"8+	c #0F161F",
"9+	c #2C3B65",
"0+	c #6079CC",
"a+	c #42599A",
"b+	c #2E4069",
"c+	c #223150",
"d+	c #242E55",
"e+	c #313F70",
"f+	c #3C538A",
"g+	c #4658A1",
"h+	c #3F579D",
"i+	c #252420",
"j+	c #878787",
"k+	c #2F2F2F",
"l+	c #2E2E2F",
"m+	c #373737",
"n+	c #2D396B",
"o+	c #4D6DBE",
"p+	c #5173C6",
"q+	c #4F6DB9",
"r+	c #5164A6",
"s+	c #3C5497",
"t+	c #293D63",
"u+	c #273A69",
"v+	c #4A5FA3",
"w+	c #4C5A97",
"x+	c #010911",
"y+	c #090B0B",
"z+	c #0B0A0F",
"A+	c #1A1C36",
"B+	c #6076C3",
"C+	c #3B5CA0",
"D+	c #24335F",
"E+	c #273E6E",
"F+	c #3D528B",
"G+	c #4861A6",
"H+	c #4D68AE",
"I+	c #536BB4",
"J+	c #5677BE",
"K+	c #080D1F",
"L+	c #7A7B7A",
"M+	c #8E8E8E",
"N+	c #272725",
"O+	c #1C2241",
"P+	c #3E4575",
"Q+	c #5A65A6",
"R+	c #5D74BE",
"S+	c #5773C1",
"T+	c #3D4C91",
"U+	c #6484CA",
"V+	c #5163A6",
"W+	c #394A7F",
"X+	c #304781",
"Y+	c #6B83CC",
"Z+	c #242D4F",
"`+	c #08040C",
" @	c #000110",
".@	c #5B6DAD",
"+@	c #5168BE",
"@@	c #2F4477",
"#@	c #283D73",
"$@	c #4A5C96",
"%@	c #5A69A3",
"&@	c #475CA2",
"*@	c #516CBF",
"=@	c #546FBC",
"-@	c #435A98",
";@	c #0F183A",
">@	c #03081E",
",@	c #464645",
"'@	c #676767",
")@	c #3F3F3F",
"!@	c #4E4E4E",
"~@	c #171716",
"{@	c #384364",
"]@	c #2E3A5F",
"^@	c #070C31",
"/@	c #1F264E",
"(@	c #4B5C8E",
"_@	c #5A69A2",
":@	c #141835",
"<@	c #444D8D",
"[@	c #6281D0",
"}@	c #4461AD",
"|@	c #335E9B",
"1@	c #5D75B6",
"2@	c #0A0219",
"3@	c #111843",
"4@	c #6185D3",
"5@	c #354F89",
"6@	c #5A6AAC",
"7@	c #5E72AA",
"8@	c #20284E",
"9@	c #2A3458",
"0@	c #4C6AAC",
"a@	c #5971BF",
"b@	c #404E86",
"c@	c #201D39",
"d@	c #1B1F37",
"e@	c #2A2A28",
"f@	c #5E5E5E",
"g@	c #656565",
"h@	c #515151",
"i@	c #11131B",
"j@	c #1C2447",
"k@	c #3D4469",
"l@	c #445482",
"m@	c #122346",
"n@	c #0F1323",
"o@	c #03000B",
"p@	c #04060D",
"q@	c #111427",
"r@	c #0F203C",
"s@	c #516198",
"t@	c #697FC4",
"u@	c #5D71CD",
"v@	c #1F3147",
"w@	c #607FB6",
"x@	c #5574BC",
"y@	c #697EC0",
"z@	c #2F3569",
"A@	c #0C122C",
"B@	c #03080B",
"C@	c #1E2238",
"D@	c #2D335D",
"E@	c #2F3961",
"F@	c #2A3B5E",
"G@	c #213163",
"H@	c #4F5778",
"I@	c #313B5B",
"J@	c #111011",
"K@	c #575757",
"L@	c #595959",
"M@	c #727272",
"N@	c #0C101F",
"O@	c #394671",
"P@	c #23254B",
"Q@	c #212958",
"R@	c #475483",
"S@	c #141B3A",
"T@	c #0F1324",
"U@	c #0B0C1E",
"V@	c #010003",
"W@	c #060606",
"X@	c #020513",
"Y@	c #000314",
"Z@	c #2D3B7D",
"`@	c #7197E8",
" #	c #4F68B4",
".#	c #1A244C",
"+#	c #000312",
"@#	c #030406",
"##	c #080502",
"$#	c #010308",
"%#	c #00050A",
"&#	c #00030C",
"*#	c #14173D",
"=#	c #5766A3",
"-#	c #414D78",
";#	c #05113B",
">#	c #2A3A64",
",#	c #08090F",
"'#	c #4E4F4E",
")#	c #4F4F4F",
"!#	c #818181",
"~#	c #0E111C",
"{#	c #192145",
"]#	c #1B2953",
"^#	c #445587",
"/#	c #56649C",
"(#	c #475789",
"_#	c #314368",
":#	c #26293D",
"<#	c #161720",
"[#	c #0D0D1F",
"}#	c #1E2E4F",
"|#	c #556F9E",
"1#	c #6D88C2",
"2#	c #3B4D99",
"3#	c #788AD4",
"4#	c #5C79B5",
"5#	c #324067",
"6#	c #080F23",
"7#	c #0B0A12",
"8#	c #272A40",
"9#	c #414C78",
"0#	c #425995",
"a#	c #536CA3",
"b#	c #00041D",
"c#	c #2F3454",
"d#	c #374875",
"e#	c #3A4B80",
"f#	c #06060C",
"g#	c #444445",
"h#	c #464646",
"i#	c #7A7A7A",
"j#	c #14151D",
"k#	c #485790",
"l#	c #31416E",
"m#	c #314278",
"n#	c #273976",
"o#	c #303D74",
"p#	c #293359",
"q#	c #0E0F26",
"r#	c #1B2346",
"s#	c #546698",
"t#	c #6278AF",
"u#	c #3857B1",
"v#	c #6B82C8",
"w#	c #415289",
"x#	c #456FC2",
"y#	c #5B75BF",
"z#	c #667DC9",
"A#	c #2B3264",
"B#	c #222544",
"C#	c #13162B",
"D#	c #2A3B67",
"E#	c #294587",
"F#	c #4A4C84",
"G#	c #3B4270",
"H#	c #192647",
"I#	c #46558F",
"J#	c #090807",
"K#	c #868686",
"L#	c #959595",
"M#	c #2D2C2A",
"N#	c #4B68BF",
"O#	c #5A77C1",
"P#	c #5D71BB",
"Q#	c #5B6EB2",
"R#	c #3C4B8B",
"S#	c #394579",
"T#	c #3B5081",
"U#	c #556CA5",
"V#	c #253F7F",
"W#	c #354B91",
"X#	c #5A76C3",
"Y#	c #3C4C7B",
"Z#	c #070507",
"`#	c #060B2B",
" $	c #728CCF",
".$	c #2B408B",
"+$	c #3D5CA2",
"@$	c #6176C6",
"#$	c #586CAE",
"$$	c #1E2F61",
"%$	c #334276",
"&$	c #576BAC",
"*$	c #556CB5",
"=$	c #4B5EA5",
"-$	c #3F4D82",
";$	c #232D52",
">$	c #151412",
",$	c #383838",
"'$	c #5A5A58",
")$	c #435181",
"!$	c #3A4E86",
"~$	c #3B5199",
"{$	c #495EA4",
"]$	c #435694",
"^$	c #4C5B96",
"/$	c #314579",
"($	c #283969",
"_$	c #374279",
":$	c #4F63B1",
"<$	c #6174B1",
"[$	c #060C24",
"}$	c #0D0C0F",
"|$	c #050309",
"1$	c #303C66",
"2$	c #6378C2",
"3$	c #2D3D6D",
"4$	c #3B498A",
"5$	c #4C63A9",
"6$	c #5170B4",
"7$	c #5265A8",
"8$	c #44569E",
"9$	c #4F6EC1",
"0$	c #4F67B2",
"a$	c #495798",
"b$	c #01041D",
"c$	c #1B1C1A",
"d$	c #AEAEAE",
"e$	c #02051C",
"f$	c #354472",
"g$	c #4E63A5",
"h$	c #445892",
"i$	c #3B4C7C",
"j$	c #283466",
"k$	c #262F5F",
"l$	c #31426F",
"m$	c #445CA0",
"n$	c #606FBA",
"o$	c #2F3760",
"p$	c #1D233F",
"q$	c #1F254D",
"r$	c #0A0D10",
"s$	c #03071E",
"t$	c #5869A6",
"u$	c #435999",
"v$	c #25385A",
"w$	c #2E3F6B",
"x$	c #465799",
"y$	c #4864AD",
"z$	c #4F6CB9",
"A$	c #4C5DA0",
"B$	c #3A466A",
"C$	c #080B1B",
"D$	c #161617",
"E$	c #494949",
"F$	c #D6D7D6",
"G$	c #232427",
"H$	c #445E9D",
"I$	c #31477E",
"J$	c #2B3865",
"K$	c #23294D",
"L$	c #22305B",
"M$	c #344273",
"N$	c #435CA0",
"O$	c #5873C5",
"P$	c #3B4A86",
"Q$	c #262F57",
"R$	c #34426E",
"S$	c #31467A",
"T$	c #182132",
"U$	c #1F2947",
"V$	c #1F2A5B",
"W$	c #546AB7",
"X$	c #364776",
"Y$	c #222F57",
"Z$	c #283767",
"`$	c #334D84",
" %	c #405C9E",
".%	c #415194",
"+%	c #101F45",
"@%	c #060314",
"#%	c #08090A",
"$%	c #1B1B1B",
"%%	c #1A1A1A",
"&%	c #D8D8D8",
"*%	c #AAAAA9",
"=%	c #141E3C",
"-%	c #223059",
";%	c #1F294C",
">%	c #263257",
",%	c #2C4575",
"'%	c #425C97",
")%	c #506CAA",
"!%	c #586CA9",
"~%	c #36468F",
"{%	c #3A4A89",
"]%	c #5A69A1",
"^%	c #37427C",
"/%	c #333B64",
"(%	c #3E4F86",
"_%	c #596FBE",
":%	c #425191",
"<%	c #4A5DA1",
"[%	c #2F3D70",
"}%	c #233359",
"|%	c #304474",
"1%	c #3F518B",
"2%	c #4A5D92",
"3%	c #141B31",
"4%	c #151515",
"5%	c #101010",
"6%	c #E7E7E7",
"7%	c #FFFFFF",
"8%	c #393A3B",
"9%	c #20294B",
"0%	c #283558",
"a%	c #304472",
"b%	c #3C5995",
"c%	c #4D68B8",
"d%	c #3A4E8C",
"e%	c #404B87",
"f%	c #5A70B2",
"g%	c #354373",
"h%	c #242C4F",
"i%	c #272F53",
"j%	c #1D264B",
"k%	c #2A3A6D",
"l%	c #4A66AD",
"m%	c #465A91",
"n%	c #485EAF",
"o%	c #405493",
"p%	c #2F3C60",
"q%	c #202A4A",
"r%	c #212E4F",
"s%	c #2A3965",
"t%	c #2B3A6C",
"u%	c #050401",
"v%	c #0A0A0A",
"w%	c #F8F8F8",
"x%	c #EDECEC",
"y%	c #04070F",
"z%	c #304375",
"A%	c #3D548F",
"B%	c #4660A4",
"C%	c #45588F",
"D%	c #222F4F",
"E%	c #212D5C",
"F%	c #2C3765",
"G%	c #2E314F",
"H%	c #1A1A35",
"I%	c #34365C",
"J%	c #272E58",
"K%	c #323E6B",
"L%	c #495A95",
"M%	c #425396",
"N%	c #5170B7",
"O%	c #4862A6",
"P%	c #3A4F8C",
"Q%	c #293663",
"R%	c #212747",
"S%	c #1E2950",
"T%	c #020307",
"U%	c #161616",
"V%	c #E3E3E3",
"W%	c #C1C0C0",
"X%	c #030919",
"Y%	c #3F5BA3",
"Z%	c #485895",
"`%	c #0C1124",
" &	c #212935",
".&	c #1A213E",
"+&	c #262B4C",
"@&	c #2D3356",
"#&	c #12193A",
"$&	c #283657",
"%&	c #17244E",
"&&	c #414A7D",
"*&	c #313963",
"=&	c #13183D",
"-&	c #4B6BAE",
";&	c #4765AB",
">&	c #495DA1",
",&	c #344980",
"'&	c #28375A",
")&	c #020309",
"!&	c #0F0F0F",
"~&	c #060707",
"{&	c #010101",
"]&	c #DBDBDB",
"^&	c #B1B0AF",
"/&	c #0E121E",
"(&	c #212A55",
"_&	c #0C1125",
":&	c #18222A",
"<&	c #171F2B",
"[&	c #161A35",
"}&	c #1F2346",
"|&	c #3B4462",
"1&	c #0D1833",
"2&	c #293252",
"3&	c #313761",
"4&	c #32365D",
"5&	c #141C29",
"6&	c #4F64AC",
"7&	c #4561AB",
"8&	c #374C88",
"9&	c #04050B",
"0&	c #0E0E0E",
"a&	c #C8C8C8",
"b&	c #BCBCBC",
"c&	c #B5B4B5",
"d&	c #2A2A2B",
"e&	c #1F2644",
"f&	c #313B60",
"g&	c #1A1E36",
"h&	c #141A36",
"i&	c #252948",
"j&	c #10162E",
"k&	c #0F1528",
"l&	c #2C334A",
"m&	c #17193A",
"n&	c #2D335F",
"o&	c #2E3960",
"p&	c #18183B",
"q&	c #29355F",
"r&	c #1B2845",
"s&	c #030100",
"t&	c #0C0C0C",
"u&	c #AAAAAA",
"v&	c #A8A8A8",
"w&	c #727271",
"x&	c #18191B",
"y&	c #111322",
"z&	c #161C34",
"A&	c #303756",
"B&	c #0D1024",
"C&	c #0F1224",
"D&	c #1E2940",
"E&	c #273256",
"F&	c #37467E",
"G&	c #101B37",
"H&	c #181E30",
"I&	c #060507",
"J&	c #141413",
"K&	c #111212",
"L&	c #010100",
"M&	c #A6A6A6",
"N&	c #979797",
"O&	c #8A8A89",
"P&	c #40403F",
"Q&	c #1F1F1E",
"R&	c #101014",
"S&	c #08090E",
"T&	c #090C12",
"U&	c #0E0F16",
"V&	c #100F0C",
"W&	c #1A1918",
"X&	c #080808",
"Y&	c #7B7B7B",
"Z&	c #6F6F6F",
"`&	c #585758",
" *	c #505050",
".*	c #454545",
"+*	c #3A3939",
"@*	c #2E2E2D",
"#*	c #181818",
"$*	c #767676",
"%*	c #585858",
"&*	c #535353",
"**	c #474646",
"=*	c #2B2B2B",
"                      .   + @ # $ % &   *                       ",
"                    = - ; > , ' ) & ! ~ { ]                     ",
"              ^ / ( _ : < [ } | 1 2 3 4 5 6 7 8 9               ",
"            0 a b c d e f g h i j k l m n o p q r s             ",
"          t u ( v w x y z A B C D E F G H I J K L M N           ",
"        t / O P Q R S T U V W X Y Z `  ...+.@.#.$.%.&.*.        ",
"      =./ O -.;.>.,.'.).!.~.{.].^./.(._.:.<.[.}.|.1.2.3.4.      ",
"    t u 5.6.7.8.9.0.a.b.c.d.e.f.g.h.i.j.k.l.m.n.o.p.q.r.s.t.    ",
"    u.v.w.x.y.z.A.B.C.D.E.F.G.H.I.J.K.L.M.N.O.P.Q.R.S.T.U.V.    ",
"    ( W.X.Y.Z.`. +.+++@+#+$+%+&+*+=+-+;+>+,+'+)+!+~+{+]+^+/+    ",
"  ( _ (+_+:+<+[+}+|+1+2+3+4+5+6+7+8+9+0+a+b+c+d+e+f+g+h+i+j+^+  ",
"k+l+m+5+n+o+p+q+r+s+t+u+v+w+x+y+z+A+B+C+#.D+E+F+G+H+I+J+K+L+$ M+",
"  ; N+O+P+Q+R+S+T+U+V+W+X+Y+Z+`+ @.@+@@@#@$@%@&@*@=@-@;@>@,@'@  ",
")@!@~@{@]@^@/@(@_@:@<@[@}@|@1@2@3@4@5@6@7@8@9@0@p+a@b@c@d@e@f@g@",
"h@# i@j@k@l@m@n@o@p@q@r@s@t@u@v@w@x@y@z@A@B@C@D@E@F@G@H@I@J@K@L@",
"L@M@N@O@P@Q@R@S@T@U@V@W@X@Y@Z@`@ #.#+#@###$#%#&#*#=#-#;#>#,#'#)#",
"'@!#~#{#]#^#/#(#_#:#<#[#}#|#1#2#3#4#5#6#7#8#9#0#a#b#c#d#e#f#g#h#",
"i#/+j#k#l#m#n#o#p#q#r#s#t#u#v#J w#x#y#z#A#B#C#D#E#F#G#H#I#J#: )@",
"K#L#M#N#O#P#Q#R#S#T#U#V#W#X#Y#Z#`# $.$+$@$#$$$%$&$*$=$-$;$>$- ,$",
"  ~ '$)$!$~${$]$^$/$($_$:$<$[$}$|$1$2$3$4$5$6$7$8$9$0$a$b$c$b   ",
"s.d$s.e$f$g$h$i$j$k$l$m$n$o$p$q$r$s$t$u$v$w$x$y$z$A$F.B$C$b D$E$",
"  3.F$G$H$I$J$K$L$M$N$O$P$Q$R$S$T$U$V$W$X$Y$Z$`$ %.%+%@%#%$%%%  ",
"    &%*%=%-%;%>%,%'%)%!%~%{%]%^%/%(%_%:%<%[%S.}%|%1%2%3%4%5%    ",
"    6%7%8%9%0%a%b%c%d%e%f%g%h%i%j%k%l%m%n%o%p%q%r%s%t%u%u.v%    ",
"    9 w%x%y%z%A%B%C%D%E%F%G%H%I%J%K%L%M%N%O%P%Q%R%S%T%u.0 U%    ",
"      s V%W%X%Y%Z%`% &.&+&@&#&$&%&&&*&=&-&;&>&,&'&)&!&~&{&      ",
"        ]&&.^&/&(&_&:&<&[&}&|&1&2&3&4&5&o$6&7&8&9&!&W@0&        ",
"          a&b&c&d&e&f&g&h&i&j&k&l&m&n&o&p&q&r&s&u.W@t&          ",
"            4.u&v&w&x&y&z&A&B&C&D&E&F&G&H&I&J&K&0 L&            ",
"              M&N&/+O&' P&Q&R&S&T&U&V&W&( $%u.X&u.              ",
"                    Y&Z&'@, `& *.*+*@*b #*U%                    ",
"                      $*  %*&***; : =*  _                       "};
